<svg width="109" height="108" viewBox="0 0 109 108" fill="none" xmlns="http://www.w3.org/2000/svg">
<path d="M68.2131 40.3023C68.7851 40.6805 69.0853 41.3344 68.9777 41.9882L65.3527 64.4663C65.2677 64.9905 64.9336 65.4497 64.4465 65.7091C63.9593 65.9685 63.3759 66.0009 62.8605 65.7956L55.7068 62.9588L53.4355 66.9843C53.141 67.5084 52.5123 67.7732 51.9062 67.6273C51.3002 67.4814 50.8754 66.9627 50.8754 66.3683V61.1811C50.8754 60.8947 50.9773 60.6137 51.1642 60.3868L60.5269 48.8991C60.6685 48.5155 60.1588 48.1264 59.7906 48.4452L49.6519 57.1933L47.8394 58.7549C47.3183 59.2034 46.5763 59.3277 45.925 59.0683L41.1105 57.1555C40.4761 56.9016 40.0457 56.3288 40.006 55.6696C39.9664 55.0104 40.3175 54.389 40.9179 54.0594L66.2929 40.2267C66.899 39.8971 67.6467 39.9295 68.2187 40.3023H68.2131Z" fill="white"/>
</svg>
